<svg width="30" height="31" viewBox="0 0 30 31" fill="none" xmlns="http://www.w3.org/2000/svg">
<path d="M15 1C13.1615 1 11.341 1.37111 9.64243 2.09214C7.94387 2.81318 6.40053 3.87001 5.1005 5.20231C2.475 7.893 1 11.5424 1 15.3476C1 21.6892 5.018 27.0695 10.576 28.9778C11.276 29.0926 11.5 28.6478 11.5 28.2604V25.8357C7.622 26.6965 6.796 23.9131 6.796 23.9131C6.152 22.2488 5.242 21.804 5.242 21.804C3.968 20.9144 5.34 20.9431 5.34 20.9431C6.74 21.0436 7.482 22.4209 7.482 22.4209C8.7 24.6018 10.758 23.9561 11.556 23.6118C11.682 22.6792 12.046 22.0479 12.438 21.6892C9.33 21.3305 6.068 20.0966 6.068 14.6302C6.068 13.0376 6.6 11.7607 7.51 10.742C7.37 10.3833 6.88 8.89117 7.65 6.95424C7.65 6.95424 8.826 6.56686 11.5 8.4177C12.606 8.10205 13.81 7.94423 15 7.94423C16.19 7.94423 17.394 8.10205 18.5 8.4177C21.174 6.56686 22.35 6.95424 22.35 6.95424C23.12 8.89117 22.63 10.3833 22.49 10.742C23.4 11.7607 23.932 13.0376 23.932 14.6302C23.932 20.111 20.656 21.3162 17.534 21.6749C18.038 22.1196 18.5 22.9948 18.5 24.3292V28.2604C18.5 28.6478 18.724 29.1069 19.438 28.9778C24.996 27.0552 29 21.6892 29 15.3476C29 13.4634 28.6379 11.5977 27.9343 9.857C27.2307 8.11627 26.1995 6.5346 24.8995 5.20231C23.5995 3.87001 22.0561 2.81318 20.3576 2.09214C18.659 1.37111 16.8385 1 15 1V1Z" fill="#909DB5"/>
</svg>
