<svg width="144" height="22" viewBox="0 0 144 22" fill="none" xmlns="http://www.w3.org/2000/svg">
<path d="M3.288 17C2.616 17 2.096 16.808 1.728 16.424C1.36 16.024 1.096 15.504 0.936 14.864C0.776 14.208 0.68 13.488 0.648 12.704C0.616 11.92 0.6 11.136 0.6 10.352C0.6 9.968 0.6 9.472 0.6 8.864C0.616 8.24 0.624 7.608 0.624 6.968C0.64 6.312 0.656 5.736 0.672 5.24C0.688 4.728 0.704 4.376 0.72 4.184C0.752 3.032 0.992 2.08 1.44 1.328C1.888 0.575999 2.552 0.199999 3.432 0.199999C4.44 0.199999 5.128 0.639999 5.496 1.52C5.88 2.384 6.072 3.632 6.072 5.264C6.072 5.44 6.072 5.68 6.072 5.984C6.376 5.424 6.744 4.816 7.176 4.16C7.624 3.504 8.112 2.88 8.64 2.288C9.168 1.696 9.728 1.216 10.32 0.847999C10.912 0.463999 11.512 0.271999 12.12 0.271999C12.872 0.271999 13.488 0.559999 13.968 1.136C14.464 1.696 14.712 2.392 14.712 3.224C14.712 3.976 14.488 4.712 14.04 5.432C13.608 6.136 13.008 6.776 12.24 7.352C11.472 7.928 10.576 8.4 9.552 8.768C10.144 9.04 10.744 9.368 11.352 9.752C11.96 10.12 12.512 10.536 13.008 11C13.52 11.448 13.928 11.936 14.232 12.464C14.536 12.992 14.688 13.56 14.688 14.168C14.688 14.84 14.552 15.384 14.28 15.8C14.024 16.216 13.688 16.52 13.272 16.712C12.856 16.904 12.416 17 11.952 17C11.136 17 10.376 16.736 9.672 16.208C8.968 15.68 8.312 14.992 7.704 14.144C7.112 13.296 6.56 12.408 6.048 11.48C6.048 12.184 6.016 12.864 5.952 13.52C5.904 14.176 5.792 14.768 5.616 15.296C5.44 15.824 5.168 16.24 4.8 16.544C4.432 16.848 3.928 17 3.288 17ZM19.7559 17C18.9719 17 18.2519 16.88 17.5959 16.64C16.9559 16.4 16.4439 16.04 16.0599 15.56C15.6759 15.064 15.4839 14.44 15.4839 13.688C15.4839 13.048 15.6759 12.504 16.0599 12.056C16.4439 11.608 16.9559 11.264 17.5959 11.024C18.2519 10.784 18.9719 10.664 19.7559 10.664C20.2199 10.664 20.6439 10.704 21.0279 10.784C21.4119 10.848 21.6759 10.928 21.8199 11.024C21.8199 10.656 21.6679 10.336 21.3639 10.064C21.0599 9.776 20.5319 9.632 19.7799 9.632C19.4279 9.632 19.1479 9.664 18.9399 9.728C18.7479 9.776 18.5719 9.84 18.4119 9.92C18.2519 10 18.0679 10.072 17.8599 10.136C17.6679 10.184 17.4039 10.208 17.0679 10.208C16.5719 10.208 16.1719 10.08 15.8679 9.824C15.5799 9.552 15.4359 9.144 15.4359 8.6C15.4359 8.104 15.5719 7.68 15.8439 7.328C16.1319 6.96 16.4999 6.656 16.9479 6.416C17.3959 6.176 17.8759 6 18.3879 5.888C18.9159 5.776 19.4199 5.72 19.8999 5.72C21.3239 5.72 22.4839 5.984 23.3799 6.512C24.2759 7.024 24.9399 7.696 25.3719 8.528C25.8039 9.36 26.0199 10.264 26.0199 11.24C26.0199 11.784 25.9719 12.288 25.8759 12.752C25.7959 13.216 25.6839 13.576 25.5399 13.832C25.7639 14.024 25.9319 14.248 26.0439 14.504C26.1719 14.76 26.2359 15.024 26.2359 15.296C26.2359 15.744 26.0839 16.144 25.7799 16.496C25.4919 16.832 25.0759 17 24.5319 17C24.1159 17 23.7879 16.936 23.5479 16.808C23.3079 16.68 23.0679 16.512 22.8279 16.304C22.4439 16.528 22.0199 16.704 21.5559 16.832C21.0919 16.944 20.4919 17 19.7559 17ZM20.2359 14.576C20.6039 14.576 20.8759 14.504 21.0519 14.36C21.2439 14.2 21.3399 14.024 21.3399 13.832C21.3399 13.64 21.2439 13.472 21.0519 13.328C20.8759 13.168 20.6039 13.088 20.2359 13.088C19.8839 13.088 19.6119 13.168 19.4199 13.328C19.2279 13.472 19.1319 13.64 19.1319 13.832C19.1319 14.024 19.2279 14.2 19.4199 14.36C19.6119 14.504 19.8839 14.576 20.2359 14.576ZM34.1079 17C32.5559 17 31.2039 16.68 30.0519 16.04C28.9159 15.4 28.1639 14.392 27.7959 13.016C27.6359 12.408 27.5319 11.672 27.4839 10.808C27.4519 9.928 27.4359 9 27.4359 8.024C27.4359 7.064 27.4759 6.12 27.5559 5.192C27.6519 4.264 27.8279 3.424 28.0839 2.672C28.3399 1.92 28.7239 1.32 29.2359 0.871999C29.7639 0.423999 30.4599 0.199999 31.3239 0.199999C31.9959 0.199999 32.5559 0.359999 33.0039 0.68C33.4679 1 33.8199 1.424 34.0599 1.952C34.2999 2.48 34.4199 3.064 34.4199 3.704C34.4199 4.904 34.3079 6.192 34.0839 7.568C33.8599 8.944 33.6359 10.24 33.4119 11.456C33.9239 11.296 34.5079 11.176 35.1639 11.096C35.8359 11 36.5079 10.968 37.1799 11C37.8679 11.016 38.4999 11.128 39.0759 11.336C39.6519 11.528 40.1159 11.832 40.4679 12.248C40.8199 12.648 40.9959 13.176 40.9959 13.832C40.9959 14.616 40.7959 15.232 40.3959 15.68C39.9959 16.112 39.4599 16.424 38.7879 16.616C38.1159 16.792 37.3719 16.904 36.5559 16.952C35.7399 16.984 34.9239 17 34.1079 17ZM47.475 17.024C46.291 17.04 45.251 16.8 44.355 16.304C43.475 15.792 42.779 15.104 42.267 14.24C41.771 13.36 41.507 12.392 41.475 11.336C41.459 10.248 41.707 9.288 42.219 8.456C42.731 7.608 43.443 6.936 44.355 6.44C45.267 5.944 46.307 5.696 47.475 5.696C48.627 5.68 49.643 5.92 50.523 6.416C51.419 6.912 52.131 7.584 52.659 8.432C53.187 9.28 53.467 10.248 53.499 11.336C53.515 12.376 53.267 13.328 52.755 14.192C52.243 15.04 51.531 15.72 50.619 16.232C49.707 16.728 48.659 16.992 47.475 17.024ZM47.547 13.52C47.979 13.52 48.355 13.352 48.675 13.016C48.995 12.68 49.155 12.288 49.155 11.84C49.155 11.392 48.995 11.008 48.675 10.688C48.355 10.352 47.979 10.184 47.547 10.184C47.115 10.184 46.739 10.352 46.419 10.688C46.099 11.008 45.939 11.392 45.939 11.84C45.939 12.288 46.099 12.68 46.419 13.016C46.739 13.352 47.115 13.52 47.547 13.52ZM57.081 16.952C56.009 16.952 55.265 16.296 54.849 14.984C54.433 13.656 54.225 11.52 54.225 8.576C54.225 6.928 54.281 5.48 54.393 4.232C54.505 2.968 54.761 1.984 55.161 1.28C55.577 0.559999 56.217 0.199999 57.081 0.199999C57.705 0.199999 58.177 0.383999 58.497 0.751999C58.833 1.12 59.065 1.64 59.193 2.312C59.337 2.984 59.417 3.784 59.433 4.712C59.449 5.64 59.457 6.664 59.457 7.784L59.529 7.736C60.329 7.192 61.105 6.728 61.857 6.344C62.609 5.944 63.297 5.744 63.921 5.744C64.385 5.744 64.769 5.856 65.073 6.08C65.393 6.288 65.633 6.56 65.793 6.896C65.953 7.216 66.033 7.544 66.033 7.88C66.033 8.488 65.817 9.04 65.385 9.536C64.953 10.032 64.393 10.536 63.705 11.048C63.897 11.288 64.081 11.552 64.257 11.84C64.449 12.112 64.649 12.416 64.857 12.752C65.129 13.168 65.353 13.6 65.529 14.048C65.705 14.496 65.793 14.904 65.793 15.272C65.793 15.704 65.689 16.048 65.481 16.304C65.273 16.544 65.017 16.72 64.713 16.832C64.409 16.928 64.105 16.968 63.801 16.952C63.337 16.92 62.873 16.696 62.409 16.28C61.945 15.864 61.497 15.376 61.065 14.816C60.873 14.576 60.681 14.328 60.489 14.072C60.313 13.8 60.145 13.536 59.985 13.28C59.745 13.376 59.513 13.456 59.289 13.52C59.177 14.704 58.953 15.576 58.617 16.136C58.297 16.68 57.785 16.952 57.081 16.952ZM73.7608 3.224C73.7608 3.864 73.6488 4.448 73.4248 4.976C73.2008 5.504 72.9128 5.952 72.5608 6.32C72.2248 6.688 71.8728 6.976 71.5048 7.184C71.1528 7.376 70.8408 7.472 70.5688 7.472C70.2328 7.472 69.9608 7.376 69.7528 7.184C69.5608 6.992 69.4648 6.752 69.4648 6.464C69.4648 6.176 69.5448 5.936 69.7048 5.744C69.8808 5.552 70.0648 5.36 70.2568 5.168C70.4488 4.976 70.5768 4.744 70.6408 4.472C70.0968 4.312 69.6888 4.056 69.4168 3.704C69.1608 3.336 69.0328 2.928 69.0328 2.48C69.0328 1.92 69.2328 1.4 69.6328 0.92C70.0488 0.439999 70.5928 0.199999 71.2648 0.199999C71.9848 0.199999 72.5768 0.439999 73.0408 0.92C73.5208 1.4 73.7608 2.168 73.7608 3.224ZM81.3799 17C79.9719 17 78.8519 16.768 78.0199 16.304C77.1879 15.84 76.7719 15.24 76.7719 14.504C76.7719 13.992 76.9399 13.616 77.2759 13.376C77.6279 13.12 78.0439 12.992 78.5239 12.992C78.9079 12.992 79.1879 13.056 79.3639 13.184C79.5559 13.312 79.7239 13.44 79.8679 13.568C80.0119 13.696 80.1879 13.76 80.3959 13.76C80.7319 13.76 80.8999 13.64 80.8999 13.4C80.8999 13.08 80.7079 12.848 80.3239 12.704C79.9559 12.56 79.4919 12.36 78.9319 12.104C78.1639 11.736 77.6119 11.312 77.2759 10.832C76.9399 10.336 76.7719 9.832 76.7719 9.32C76.7719 8.712 76.9879 8.136 77.4199 7.592C77.8519 7.048 78.4599 6.6 79.2439 6.248C80.0439 5.896 80.9959 5.72 82.0999 5.72C83.0279 5.72 83.8599 5.848 84.5959 6.104C85.3319 6.36 85.9159 6.712 86.3479 7.16C86.7799 7.592 86.9959 8.072 86.9959 8.6C86.9959 9.096 86.8359 9.472 86.5159 9.728C86.1959 9.984 85.7799 10.112 85.2679 10.112C84.9799 10.112 84.7479 10.072 84.5719 9.992C84.4119 9.896 84.2599 9.808 84.1159 9.728C83.9879 9.648 83.8039 9.608 83.5639 9.608C83.4359 9.608 83.3239 9.656 83.2279 9.752C83.1319 9.832 83.0839 9.936 83.0839 10.064C83.0839 10.16 83.1239 10.256 83.2039 10.352C83.2839 10.448 83.4199 10.528 83.6119 10.592C84.1079 10.752 84.5879 10.96 85.0519 11.216C85.5319 11.456 85.9239 11.776 86.2279 12.176C86.5479 12.56 86.7079 13.056 86.7079 13.664C86.7079 14.704 86.2199 15.52 85.2439 16.112C84.2679 16.704 82.9799 17 81.3799 17ZM103.325 16.976C101.613 16.96 100.165 16.68 98.9813 16.136C97.7973 15.592 96.9013 14.72 96.2933 13.52C95.6853 12.304 95.3813 10.696 95.3813 8.696C95.3813 6.952 95.6613 5.448 96.2213 4.184C96.7973 2.92 97.6293 1.944 98.7173 1.256C99.8053 0.551999 101.141 0.199999 102.725 0.199999C104.117 0.199999 105.333 0.399999 106.373 0.8C107.413 1.2 108.229 1.776 108.821 2.528C109.429 3.264 109.765 4.144 109.829 5.168C109.893 6.144 109.725 6.992 109.325 7.712C108.941 8.432 108.365 9.072 107.597 9.632C108.157 9.728 108.661 10.04 109.109 10.568C109.573 11.096 109.805 11.736 109.805 12.488C109.805 13 109.701 13.52 109.493 14.048C109.285 14.576 108.933 15.064 108.437 15.512C107.957 15.96 107.293 16.32 106.445 16.592C105.613 16.848 104.573 16.976 103.325 16.976ZM101.669 8.024C102.005 8.168 102.405 8.24 102.869 8.24C103.333 8.224 103.741 8.096 104.093 7.856C104.461 7.616 104.645 7.248 104.645 6.752C104.645 6.384 104.533 6.088 104.309 5.864C104.101 5.64 103.837 5.488 103.517 5.408C103.197 5.312 102.869 5.272 102.533 5.288C102.197 5.304 101.909 5.376 101.669 5.504C101.365 5.648 101.157 5.896 101.045 6.248C100.949 6.6 100.949 6.952 101.045 7.304C101.157 7.64 101.365 7.88 101.669 8.024ZM101.669 13.64C102.005 13.768 102.405 13.832 102.869 13.832C103.333 13.816 103.741 13.704 104.093 13.496C104.461 13.288 104.645 12.968 104.645 12.536C104.645 12.216 104.533 11.96 104.309 11.768C104.101 11.56 103.837 11.416 103.517 11.336C103.197 11.256 102.869 11.232 102.533 11.264C102.197 11.28 101.909 11.336 101.669 11.432C101.365 11.56 101.157 11.776 101.045 12.08C100.949 12.384 100.949 12.688 101.045 12.992C101.157 13.296 101.365 13.512 101.669 13.64ZM113.846 16.952C113.03 16.952 112.422 16.648 112.021 16.04C111.622 15.416 111.358 14.488 111.229 13.256C111.102 12.008 111.038 10.448 111.038 8.576C111.038 7.344 111.054 6.216 111.086 5.192C111.134 4.168 111.246 3.288 111.422 2.552C111.598 1.8 111.878 1.224 112.262 0.823999C112.646 0.407999 113.182 0.199999 113.87 0.199999C114.558 0.199999 115.094 0.407999 115.478 0.823999C115.862 1.224 116.142 1.8 116.318 2.552C116.494 3.288 116.598 4.168 116.63 5.192C116.678 6.216 116.702 7.344 116.702 8.576C116.702 11.392 116.502 13.496 116.102 14.888C115.718 16.264 114.966 16.952 113.846 16.952ZM123.436 17.024C122.252 17.04 121.212 16.8 120.316 16.304C119.436 15.792 118.74 15.104 118.228 14.24C117.732 13.36 117.468 12.392 117.436 11.336C117.42 10.248 117.668 9.288 118.18 8.456C118.692 7.608 119.404 6.936 120.316 6.44C121.228 5.944 122.268 5.696 123.436 5.696C124.588 5.68 125.604 5.92 126.484 6.416C127.38 6.912 128.092 7.584 128.62 8.432C129.148 9.28 129.428 10.248 129.46 11.336C129.476 12.376 129.228 13.328 128.716 14.192C128.204 15.04 127.492 15.72 126.58 16.232C125.668 16.728 124.62 16.992 123.436 17.024ZM123.508 13.52C123.94 13.52 124.316 13.352 124.636 13.016C124.956 12.68 125.116 12.288 125.116 11.84C125.116 11.392 124.956 11.008 124.636 10.688C124.316 10.352 123.94 10.184 123.508 10.184C123.076 10.184 122.7 10.352 122.38 10.688C122.06 11.008 121.9 11.392 121.9 11.84C121.9 12.288 122.06 12.68 122.38 13.016C122.7 13.352 123.076 13.52 123.508 13.52ZM135.418 21.104C134.522 21.104 133.77 20.928 133.162 20.576C132.554 20.24 132.25 19.776 132.25 19.184C132.25 18.576 132.514 18.104 133.042 17.768C133.57 17.432 134.21 17.328 134.962 17.456C135.842 17.584 136.626 17.528 137.314 17.288C138.018 17.064 138.434 16.72 138.562 16.256C138.306 16.4 137.954 16.52 137.506 16.616C137.058 16.712 136.554 16.76 135.994 16.76C134.906 16.76 133.986 16.6 133.234 16.28C132.498 15.944 131.906 15.52 131.458 15.008C131.01 14.48 130.682 13.928 130.474 13.352C130.282 12.76 130.186 12.216 130.186 11.72C130.186 10.408 130.466 9.304 131.026 8.408C131.602 7.512 132.33 6.832 133.21 6.368C134.09 5.904 134.994 5.672 135.922 5.672C136.226 5.672 136.586 5.696 137.002 5.744C137.434 5.776 137.802 5.832 138.106 5.912C138.234 5.512 138.442 5.184 138.73 4.928C139.034 4.672 139.514 4.544 140.17 4.544C140.746 4.544 141.226 4.744 141.61 5.144C141.994 5.528 142.298 6.056 142.522 6.728C142.746 7.384 142.906 8.12 143.002 8.936C143.098 9.736 143.138 10.568 143.122 11.432C143.122 12.28 143.082 13.08 143.002 13.832C142.842 15.32 142.434 16.608 141.778 17.696C141.122 18.784 140.25 19.624 139.162 20.216C138.09 20.808 136.842 21.104 135.418 21.104ZM136.306 13.16C136.802 13.16 137.234 12.976 137.602 12.608C137.97 12.24 138.154 11.816 138.154 11.336C138.154 10.84 137.97 10.408 137.602 10.04C137.234 9.672 136.802 9.488 136.306 9.488C135.81 9.488 135.378 9.672 135.01 10.04C134.658 10.408 134.482 10.84 134.482 11.336C134.482 11.816 134.658 12.24 135.01 12.608C135.378 12.976 135.81 13.16 136.306 13.16Z" fill="#516998"/>
</svg>
