<svg width="30" height="31" viewBox="0 0 30 31" fill="none" xmlns="http://www.w3.org/2000/svg">
<path d="M17.5275 9.25H18.7775C19.1089 9.25033 19.4267 9.38213 19.661 9.61648C19.8954 9.85083 20.0272 10.1686 20.0275 10.5V11.75C20.0275 12.0815 20.1592 12.3995 20.3936 12.6339C20.628 12.8683 20.946 13 21.2775 13C21.609 13 21.927 12.8683 22.1614 12.6339C22.3958 12.3995 22.5275 12.0815 22.5275 11.75V10.5C22.5265 9.50574 22.1311 8.55249 21.428 7.84945C20.725 7.1464 19.7718 6.75099 18.7775 6.75H17.5275C17.196 6.75 16.878 6.8817 16.6436 7.11612C16.4092 7.35054 16.2775 7.66848 16.2775 8C16.2775 8.33152 16.4092 8.64946 16.6436 8.88388C16.878 9.1183 17.196 9.25 17.5275 9.25ZM12.5275 20.5H11.2775C10.9461 20.4997 10.6283 20.3679 10.394 20.1335C10.1596 19.8992 10.0278 19.5814 10.0275 19.25V18C10.0275 17.6685 9.8958 17.3505 9.66138 17.1161C9.42696 16.8817 9.10902 16.75 8.7775 16.75C8.44598 16.75 8.12803 16.8817 7.89361 17.1161C7.65919 17.3505 7.5275 17.6685 7.5275 18V19.25C7.52849 20.2443 7.9239 21.1975 8.62694 21.9006C9.32999 22.6036 10.2832 22.999 11.2775 23H12.5275C12.859 23 13.177 22.8683 13.4114 22.6339C13.6458 22.3995 13.7775 22.0815 13.7775 21.75C13.7775 21.4185 13.6458 21.1005 13.4114 20.8661C13.177 20.6317 12.859 20.5 12.5275 20.5ZM26.2775 19.25C26.609 19.25 26.927 19.1183 27.1614 18.8839C27.3958 18.6495 27.5275 18.3315 27.5275 18C27.5275 17.6685 27.3958 17.3505 27.1614 17.1161C26.927 16.8817 26.609 16.75 26.2775 16.75H22.5275V16.125C22.5275 15.7935 22.3958 15.4755 22.1614 15.2411C21.927 15.0067 21.609 14.875 21.2775 14.875C20.946 14.875 20.628 15.0067 20.3936 15.2411C20.1592 15.4755 20.0275 15.7935 20.0275 16.125V16.75H16.2775C15.946 16.75 15.628 16.8817 15.3936 17.1161C15.1592 17.3505 15.0275 17.6685 15.0275 18C15.0275 18.3315 15.1592 18.6495 15.3936 18.8839C15.628 19.1183 15.946 19.25 16.2775 19.25H22.7575C22.475 20.3989 21.9532 21.4753 21.2262 22.4088C20.9283 22.023 20.6648 21.6118 20.4387 21.18C20.3668 21.029 20.2654 20.894 20.1403 20.783C20.0153 20.6719 19.8693 20.5871 19.7109 20.5335C19.5525 20.4798 19.3849 20.4586 19.2182 20.4709C19.0514 20.4832 18.8888 20.5289 18.74 20.6051C18.5912 20.6814 18.4592 20.7868 18.3518 20.915C18.2445 21.0432 18.1639 21.1917 18.115 21.3516C18.066 21.5115 18.0496 21.6796 18.0668 21.8459C18.084 22.0123 18.1344 22.1735 18.215 22.32C18.552 22.9706 18.954 23.5854 19.415 24.155C18.5077 24.8137 17.476 25.2811 16.3825 25.5288C16.0586 25.5995 15.7761 25.7961 15.5971 26.0752C15.4181 26.3542 15.3573 26.693 15.4281 27.0169C15.4989 27.3408 15.6954 27.6233 15.9745 27.8023C16.2536 27.9812 16.5924 28.042 16.9162 27.9712C18.4846 27.6243 19.9558 26.9316 21.2225 25.9437C22.4999 26.9324 23.981 27.6249 25.5587 27.9712C25.8826 28.0425 26.2216 27.9822 26.501 27.8036C26.7804 27.625 26.9775 27.3426 27.0487 27.0187C27.12 26.6949 27.0597 26.3559 26.8811 26.0765C26.7025 25.7971 26.4201 25.6 26.0962 25.5288C24.996 25.2841 23.9563 24.8208 23.0387 24.1663C24.1948 22.7437 24.9742 21.053 25.305 19.25H26.2775ZM11.315 14.5537C11.3975 14.8733 11.6029 15.1472 11.8866 15.3158C12.1702 15.4844 12.509 15.5341 12.8291 15.4539C13.1492 15.3737 13.4246 15.1702 13.5952 14.8878C13.7658 14.6053 13.8179 14.2669 13.74 13.9462L11.5437 5.15875C11.3896 4.54174 11.0336 3.99398 10.5324 3.60255C10.0312 3.21112 9.41346 2.9985 8.7775 2.9985C8.14153 2.9985 7.52382 3.21112 7.02259 3.60255C6.52136 3.99398 6.16537 4.54174 6.01125 5.15875L3.815 13.9462C3.7371 14.2669 3.78915 14.6053 3.95979 14.8878C4.13043 15.1702 4.40583 15.3737 4.72591 15.4539C5.04599 15.5341 5.3848 15.4844 5.66843 15.3158C5.95207 15.1472 6.15753 14.8733 6.24 14.5537L6.94 11.75H10.615L11.315 14.5537ZM7.565 9.25L8.4375 5.76625C8.46371 5.6973 8.51027 5.63796 8.57099 5.59608C8.63172 5.55421 8.70374 5.53178 8.7775 5.53178C8.85126 5.53178 8.92328 5.55421 8.984 5.59608C9.04472 5.63796 9.09128 5.6973 9.1175 5.76625L9.98875 9.25H7.565Z" fill="#859CC9"/>
</svg>
